# Blender 4.4.3
# www.blender.org
mtllib Parking2.mtl
o Cube
v 54.183304 -7.516345 -70.078003
v 54.183304 -7.408184 -70.078003
v 54.183304 -7.516328 59.711643
v 54.183304 -7.408168 59.711643
v -75.606339 -7.516345 -70.078003
v -75.606339 -7.408184 -70.078003
v -75.606339 -7.516328 59.711643
v -75.606339 -7.408168 59.711643
vn -0.0000 -1.0000 -0.0000
vn -0.0000 -0.0000 1.0000
vn -1.0000 -0.0000 -0.0000
vn -0.0000 1.0000 -0.0000
vn 1.0000 -0.0000 -0.0000
vn -0.0000 -0.0000 -1.0000
vt 2.046291 0.735318
vt 3.079939 -0.257901
vt 2.046291 -0.257901
vt 1.012644 1.728537
vt 1.012644 0.735318
vt 1.012644 -1.251120
vt 2.046291 -2.244339
vt 1.012644 -2.244339
vt -0.021004 0.735318
vt 1.012644 -0.257901
vt -0.021004 -0.257901
vt 2.046291 -1.251120
vt 3.079939 0.735318
vt 2.046291 1.728537
s 1
usemtl Material.001
f 3/1/1 5/2/1 1/3/1
f 8/4/2 3/1/2 4/5/2
f 6/6/3 7/7/3 8/8/3
f 8/9/4 2/10/4 6/11/4
f 4/5/5 1/3/5 2/10/5
f 2/10/6 5/12/6 6/6/6
f 3/1/1 7/13/1 5/2/1
f 8/4/2 7/14/2 3/1/2
f 6/6/3 5/12/3 7/7/3
f 8/9/4 4/5/4 2/10/4
f 4/5/5 3/1/5 1/3/5
f 2/10/6 1/3/6 5/12/6
o Cube.001_Cube.003
v 5.151342 4.465319 -12.474326
v 5.454609 3.894555 -12.171059
v 5.151342 4.465319 -10.449583
v 5.454609 3.894555 -10.752850
v 7.176085 4.465319 -12.474326
v 6.872818 3.894555 -12.171059
v 7.176085 4.465319 -10.449583
v 6.872818 3.894555 -10.752850
v 5.151342 3.894555 -12.474326
v 5.151342 3.894555 -10.449582
v 7.176085 3.894555 -10.449582
v 7.176085 3.894555 -12.474326
v 5.454609 -6.746767 -12.171057
v 5.454609 -6.746767 -10.752853
v 6.872818 -6.746767 -10.752853
v 6.872818 -6.746767 -12.171057
v 5.151342 -7.496742 -10.449580
v 5.454609 -6.925977 -10.752849
v 5.151342 -7.496747 -12.474324
v 5.454609 -6.925977 -12.171052
v 7.176085 -7.496742 -10.449580
v 6.872818 -6.925977 -10.752849
v 7.176085 -7.496747 -12.474324
v 6.872818 -6.925977 -12.171052
v 5.151342 -6.925977 -10.449581
v 5.151342 -6.925977 -12.474324
v 7.176085 -6.925977 -12.474324
v 7.176085 -6.925977 -10.449581
v 5.454609 3.715339 -10.752850
v 5.454609 3.715339 -12.171059
v 6.872818 3.715339 -12.171059
v 6.872818 3.715339 -10.752850
vn -1.0000 -0.0000 -0.0000
vn -0.0000 -0.0000 1.0000
vn 1.0000 -0.0000 -0.0000
vn -0.0000 -0.0000 -1.0000
vn -0.0000 1.0000 -0.0000
vn -0.0000 -1.0000 -0.0000
vt 0.354191 0.107274
vt 0.300554 0.160910
vt 0.300554 0.107274
vt 0.354191 0.160910
vt 0.407828 0.107274
vt 0.407828 0.160910
vt 0.300554 0.053637
vt 0.354191 0.053637
vt 0.354191 0.214547
vt 0.407828 0.214547
vt 0.354191 0.000000
vt 0.300554 0.000000
vt 0.187847 0.000000
vt 0.150277 1.000000
vt 0.150277 0.000000
vt 0.346157 0.206514
vt 0.308588 0.168944
vt 0.346157 0.168944
vt 0.308588 0.206514
vt 0.300554 0.214547
vt 0.391760 0.305753
vt 0.354191 0.343323
vt 0.354191 0.305753
vt 0.075139 0.000000
vt 0.112708 1.000000
vt 0.075139 1.000000
vt 0.112708 0.000000
vt 0.037569 1.000000
vt 0.037569 0.000000
vt 0.354191 0.053638
vt 0.407828 0.107277
vt 0.354191 0.107277
vt 0.407829 0.000000
vt 0.300554 0.321819
vt 0.354191 0.375458
vt 0.300554 0.375458
vt 0.407829 0.214547
vt 0.354191 0.268184
vt 0.300554 0.321821
vt 0.354191 0.321821
vt 0.225416 1.000000
vt 0.262985 0.000000
vt 0.262985 1.000000
vt 0.308588 0.260150
vt 0.308588 0.222581
vt 0.346157 0.260150
vt 0.300554 0.268184
vt 0.346157 0.222581
vt 0.391760 0.268184
vt 0.300554 1.000000
vt 0.000000 1.000000
vt 0.187847 1.000000
vt 0.225416 0.000000
vt 0.187846 1.000000
vt 0.391760 0.343323
vt 0.407828 0.053638
vt 0.407829 0.053637
vt 0.354191 0.321819
vt 0.407829 0.268184
vt 0.000000 0.000000
s 1
usemtl Material.002
f 9/15/7 18/16/7 11/17/7
f 18/18/8 15/19/8 11/20/8
f 19/15/9 13/21/9 15/22/9
f 20/23/10 9/20/10 13/24/10
f 15/25/11 9/21/11 11/26/11
f 16/27/9 24/28/9 14/29/9
f 10/30/12 18/18/12 17/23/12
f 16/31/12 18/18/12 12/32/12
f 14/33/12 19/16/12 16/31/12
f 10/30/12 20/34/12 14/33/12
f 22/35/12 24/36/12 23/37/12
f 12/38/7 21/39/7 22/40/7
f 14/29/10 21/39/10 10/41/10
f 12/38/8 23/42/8 16/43/8
f 33/44/7 27/45/7 25/46/7
f 34/47/10 31/22/10 27/25/10
f 35/48/9 29/49/9 31/50/9
f 36/51/8 25/52/8 29/23/8
f 31/53/12 25/52/12 27/54/12
f 32/55/9 40/56/9 30/57/9
f 28/58/11 33/34/11 26/59/11
f 32/60/11 34/61/11 28/58/11
f 30/62/11 35/52/11 32/60/11
f 26/59/11 36/23/11 30/62/11
f 38/37/11 40/63/11 39/35/11
f 26/57/7 38/26/7 28/64/7
f 30/65/8 37/43/8 26/42/8
f 28/66/10 39/67/10 32/55/10
f 9/15/7 17/18/7 18/16/7
f 18/18/8 19/15/8 15/19/8
f 19/15/9 20/17/9 13/21/9
f 20/23/10 17/18/10 9/20/10
f 15/25/11 13/22/11 9/21/11
f 16/27/9 23/68/9 24/28/9
f 10/30/12 12/32/12 18/18/12
f 16/31/12 19/16/12 18/18/12
f 14/33/12 20/34/12 19/16/12
f 10/30/12 17/23/12 20/34/12
f 22/35/12 21/69/12 24/36/12
f 12/38/7 10/41/7 21/39/7
f 14/29/10 24/28/10 21/39/10
f 12/38/8 22/40/8 23/42/8
f 33/44/7 34/70/7 27/45/7
f 34/47/10 35/71/10 31/22/10
f 35/48/9 36/72/9 29/49/9
f 36/51/8 33/73/8 25/52/8
f 31/53/12 29/61/12 25/52/12
f 32/55/9 39/67/9 40/56/9
f 28/58/11 34/61/11 33/34/11
f 32/60/11 35/52/11 34/61/11
f 30/62/11 36/23/11 35/52/11
f 26/59/11 33/34/11 36/23/11
f 38/37/11 37/52/11 40/63/11
f 26/57/7 37/56/7 38/26/7
f 30/65/8 40/74/8 37/43/8
f 28/66/10 38/27/10 39/67/10
o Cube.002
v -14.317103 4.465319 -12.474326
v -14.013836 3.894555 -12.171059
v -14.317103 4.465319 -10.449583
v -14.013836 3.894555 -10.752850
v -12.292360 4.465319 -12.474326
v -12.595628 3.894555 -12.171059
v -12.292360 4.465319 -10.449583
v -12.595628 3.894555 -10.752850
v -14.317103 3.894555 -12.474326
v -14.317103 3.894555 -10.449582
v -12.292360 3.894555 -10.449582
v -12.292360 3.894555 -12.474326
v -14.013836 -6.746767 -12.171057
v -14.013836 -6.746767 -10.752853
v -12.595628 -6.746767 -10.752853
v -12.595628 -6.746767 -12.171057
v -14.317103 -7.496742 -10.449580
v -14.013836 -6.925977 -10.752849
v -14.317103 -7.496747 -12.474324
v -14.013836 -6.925977 -12.171052
v -12.292360 -7.496742 -10.449580
v -12.595628 -6.925977 -10.752849
v -12.292360 -7.496747 -12.474324
v -12.595628 -6.925977 -12.171052
v -14.317103 -6.925977 -10.449581
v -14.317103 -6.925977 -12.474324
v -12.292360 -6.925977 -12.474324
v -12.292360 -6.925977 -10.449581
v -14.013836 3.715339 -10.752850
v -14.013836 3.715339 -12.171059
v -12.595628 3.715339 -12.171059
v -12.595628 3.715339 -10.752850
vn -1.0000 -0.0000 -0.0000
vn -0.0000 -0.0000 1.0000
vn 1.0000 -0.0000 -0.0000
vn -0.0000 -0.0000 -1.0000
vn -0.0000 1.0000 -0.0000
vn -0.0000 -1.0000 -0.0000
vt 0.354191 0.107274
vt 0.300554 0.160910
vt 0.300554 0.107274
vt 0.354191 0.160910
vt 0.407828 0.107274
vt 0.407828 0.160910
vt 0.300554 0.053637
vt 0.354191 0.053637
vt 0.354191 0.214547
vt 0.407828 0.214547
vt 0.354191 0.000000
vt 0.300554 0.000000
vt 0.187847 0.000000
vt 0.150277 1.000000
vt 0.150277 0.000000
vt 0.346157 0.206514
vt 0.308588 0.168944
vt 0.346157 0.168944
vt 0.308588 0.206514
vt 0.300554 0.214547
vt 0.391760 0.305753
vt 0.354191 0.343323
vt 0.354191 0.305753
vt 0.075139 0.000000
vt 0.112708 1.000000
vt 0.075139 1.000000
vt 0.112708 0.000000
vt 0.037569 1.000000
vt 0.037569 0.000000
vt 0.354191 0.053638
vt 0.407828 0.107277
vt 0.354191 0.107277
vt 0.407829 0.000000
vt 0.300554 0.321819
vt 0.354191 0.375458
vt 0.300554 0.375458
vt 0.407829 0.214547
vt 0.354191 0.268184
vt 0.300554 0.321821
vt 0.354191 0.321821
vt 0.225416 1.000000
vt 0.262985 0.000000
vt 0.262985 1.000000
vt 0.308588 0.260150
vt 0.308588 0.222581
vt 0.346157 0.260150
vt 0.300554 0.268184
vt 0.346157 0.222581
vt 0.391760 0.268184
vt 0.300554 1.000000
vt 0.000000 1.000000
vt 0.187847 1.000000
vt 0.225416 0.000000
vt 0.187846 1.000000
vt 0.391760 0.343323
vt 0.407828 0.053638
vt 0.407829 0.053637
vt 0.354191 0.321819
vt 0.407829 0.268184
vt 0.000000 0.000000
s 1
usemtl Material.002
f 41/75/13 50/76/13 43/77/13
f 50/78/14 47/79/14 43/80/14
f 51/75/15 45/81/15 47/82/15
f 52/83/16 41/80/16 45/84/16
f 47/85/17 41/81/17 43/86/17
f 48/87/15 56/88/15 46/89/15
f 42/90/18 50/78/18 49/83/18
f 48/91/18 50/78/18 44/92/18
f 46/93/18 51/76/18 48/91/18
f 42/90/18 52/94/18 46/93/18
f 54/95/18 56/96/18 55/97/18
f 44/98/13 53/99/13 54/100/13
f 46/89/16 53/99/16 42/101/16
f 44/98/14 55/102/14 48/103/14
f 65/104/13 59/105/13 57/106/13
f 66/107/16 63/82/16 59/85/16
f 67/108/15 61/109/15 63/110/15
f 68/111/14 57/112/14 61/83/14
f 63/113/18 57/112/18 59/114/18
f 64/115/15 72/116/15 62/117/15
f 60/118/17 65/94/17 58/119/17
f 64/120/17 66/121/17 60/118/17
f 62/122/17 67/112/17 64/120/17
f 58/119/17 68/83/17 62/122/17
f 70/97/17 72/123/17 71/95/17
f 58/117/13 70/86/13 60/124/13
f 62/125/14 69/103/14 58/102/14
f 60/126/16 71/127/16 64/115/16
f 41/75/13 49/78/13 50/76/13
f 50/78/14 51/75/14 47/79/14
f 51/75/15 52/77/15 45/81/15
f 52/83/16 49/78/16 41/80/16
f 47/85/17 45/82/17 41/81/17
f 48/87/15 55/128/15 56/88/15
f 42/90/18 44/92/18 50/78/18
f 48/91/18 51/76/18 50/78/18
f 46/93/18 52/94/18 51/76/18
f 42/90/18 49/83/18 52/94/18
f 54/95/18 53/129/18 56/96/18
f 44/98/13 42/101/13 53/99/13
f 46/89/16 56/88/16 53/99/16
f 44/98/14 54/100/14 55/102/14
f 65/104/13 66/130/13 59/105/13
f 66/107/16 67/131/16 63/82/16
f 67/108/15 68/132/15 61/109/15
f 68/111/14 65/133/14 57/112/14
f 63/113/18 61/121/18 57/112/18
f 64/115/15 71/127/15 72/116/15
f 60/118/17 66/121/17 65/94/17
f 64/120/17 67/112/17 66/121/17
f 62/122/17 68/83/17 67/112/17
f 58/119/17 65/94/17 68/83/17
f 70/97/17 69/112/17 72/123/17
f 58/117/13 69/116/13 70/86/13
f 62/125/14 72/134/14 69/103/14
f 60/126/16 70/87/16 71/127/16
o Cube.003_Cube.004
v 5.151342 4.465322 6.994123
v 5.454609 3.894557 7.297391
v 5.151342 4.465322 9.018868
v 5.454609 3.894558 8.715596
v 7.176085 4.465322 6.994123
v 6.872818 3.894557 7.297391
v 7.176085 4.465322 9.018868
v 6.872818 3.894558 8.715596
v 5.151342 3.894557 6.994124
v 5.151342 3.894558 9.018868
v 7.176085 3.894558 9.018868
v 7.176085 3.894557 6.994124
v 5.454609 -6.746765 7.297390
v 5.454609 -6.746765 8.715598
v 6.872818 -6.746765 8.715598
v 6.872818 -6.746765 7.297390
v 5.151342 -7.496739 9.018870
v 5.454609 -6.925974 8.715603
v 5.151342 -7.496739 6.994125
v 5.454609 -6.925974 7.297393
v 7.176085 -7.496739 9.018870
v 6.872818 -6.925974 8.715603
v 7.176085 -7.496739 6.994125
v 6.872818 -6.925974 7.297393
v 5.151342 -6.925974 9.018870
v 5.151342 -6.925974 6.994125
v 7.176085 -6.925974 6.994125
v 7.176085 -6.925974 9.018870
v 5.454609 3.715346 8.715596
v 5.454609 3.715345 7.297391
v 6.872818 3.715345 7.297391
v 6.872818 3.715346 8.715596
vn -1.0000 -0.0000 -0.0000
vn -0.0000 -0.0000 1.0000
vn 1.0000 -0.0000 -0.0000
vn -0.0000 -0.0000 -1.0000
vn -0.0000 1.0000 -0.0000
vn -0.0000 -1.0000 -0.0000
vt 0.354191 0.107274
vt 0.300554 0.160910
vt 0.300554 0.107274
vt 0.354191 0.160910
vt 0.407828 0.107274
vt 0.407828 0.160910
vt 0.300554 0.053637
vt 0.354191 0.053637
vt 0.354191 0.214547
vt 0.407828 0.214547
vt 0.354191 0.000000
vt 0.300554 0.000000
vt 0.187847 0.000000
vt 0.150277 1.000000
vt 0.150277 0.000000
vt 0.346157 0.206514
vt 0.308588 0.168944
vt 0.346157 0.168944
vt 0.308588 0.206514
vt 0.300554 0.214547
vt 0.391760 0.305753
vt 0.354191 0.343323
vt 0.354191 0.305753
vt 0.075139 0.000000
vt 0.112708 1.000000
vt 0.075139 1.000000
vt 0.112708 0.000000
vt 0.037569 1.000000
vt 0.037569 0.000000
vt 0.354191 0.053638
vt 0.407828 0.107277
vt 0.354191 0.107277
vt 0.407829 0.000000
vt 0.300554 0.321819
vt 0.354191 0.375458
vt 0.300554 0.375458
vt 0.407829 0.214547
vt 0.354191 0.268184
vt 0.300554 0.321821
vt 0.354191 0.321821
vt 0.225416 1.000000
vt 0.262985 0.000000
vt 0.262985 1.000000
vt 0.308588 0.260150
vt 0.308588 0.222581
vt 0.346157 0.260150
vt 0.300554 0.268184
vt 0.346157 0.222581
vt 0.391760 0.268184
vt 0.300554 1.000000
vt 0.000000 1.000000
vt 0.187847 1.000000
vt 0.225416 0.000000
vt 0.187846 1.000000
vt 0.391760 0.343323
vt 0.407828 0.053638
vt 0.407829 0.053637
vt 0.354191 0.321819
vt 0.407829 0.268184
vt 0.000000 0.000000
s 1
usemtl Material.002
f 73/135/19 82/136/19 75/137/19
f 82/138/20 79/139/20 75/140/20
f 83/135/21 77/141/21 79/142/21
f 84/143/22 73/140/22 77/144/22
f 79/145/23 73/141/23 75/146/23
f 80/147/21 88/148/21 78/149/21
f 74/150/24 82/138/24 81/143/24
f 80/151/24 82/138/24 76/152/24
f 78/153/24 83/136/24 80/151/24
f 74/150/24 84/154/24 78/153/24
f 86/155/24 88/156/24 87/157/24
f 76/158/19 85/159/19 86/160/19
f 78/149/22 85/159/22 74/161/22
f 76/158/20 87/162/20 80/163/20
f 97/164/19 91/165/19 89/166/19
f 98/167/22 95/142/22 91/145/22
f 99/168/21 93/169/21 95/170/21
f 100/171/20 89/172/20 93/143/20
f 95/173/24 89/172/24 91/174/24
f 96/175/21 104/176/21 94/177/21
f 92/178/23 97/154/23 90/179/23
f 96/180/23 98/181/23 92/178/23
f 94/182/23 99/172/23 96/180/23
f 90/179/23 100/143/23 94/182/23
f 102/157/23 104/183/23 103/155/23
f 90/177/19 102/146/19 92/184/19
f 94/185/20 101/163/20 90/162/20
f 92/186/22 103/187/22 96/175/22
f 73/135/19 81/138/19 82/136/19
f 82/138/20 83/135/20 79/139/20
f 83/135/21 84/137/21 77/141/21
f 84/143/22 81/138/22 73/140/22
f 79/145/23 77/142/23 73/141/23
f 80/147/21 87/188/21 88/148/21
f 74/150/24 76/152/24 82/138/24
f 80/151/24 83/136/24 82/138/24
f 78/153/24 84/154/24 83/136/24
f 74/150/24 81/143/24 84/154/24
f 86/155/24 85/189/24 88/156/24
f 76/158/19 74/161/19 85/159/19
f 78/149/22 88/148/22 85/159/22
f 76/158/20 86/160/20 87/162/20
f 97/164/19 98/190/19 91/165/19
f 98/167/22 99/191/22 95/142/22
f 99/168/21 100/192/21 93/169/21
f 100/171/20 97/193/20 89/172/20
f 95/173/24 93/181/24 89/172/24
f 96/175/21 103/187/21 104/176/21
f 92/178/23 98/181/23 97/154/23
f 96/180/23 99/172/23 98/181/23
f 94/182/23 100/143/23 99/172/23
f 90/179/23 97/154/23 100/143/23
f 102/157/23 101/172/23 104/183/23
f 90/177/19 101/176/19 102/146/19
f 94/185/20 104/194/20 101/163/20
f 92/186/22 102/147/22 103/187/22
o Cube.004_Cube.005
v -14.317103 4.465322 6.994123
v -14.013836 3.894557 7.297391
v -14.317103 4.465322 9.018868
v -14.013836 3.894558 8.715596
v -12.292360 4.465322 6.994123
v -12.595628 3.894557 7.297391
v -12.292360 4.465322 9.018868
v -12.595628 3.894558 8.715596
v -14.317103 3.894557 6.994124
v -14.317103 3.894558 9.018868
v -12.292360 3.894558 9.018868
v -12.292360 3.894557 6.994124
v -14.013836 -6.746765 7.297390
v -14.013836 -6.746765 8.715598
v -12.595628 -6.746765 8.715598
v -12.595628 -6.746765 7.297390
v -14.317103 -7.496739 9.018870
v -14.013836 -6.925974 8.715603
v -14.317103 -7.496739 6.994125
v -14.013836 -6.925974 7.297393
v -12.292360 -7.496739 9.018870
v -12.595628 -6.925974 8.715603
v -12.292360 -7.496739 6.994125
v -12.595628 -6.925974 7.297393
v -14.317103 -6.925974 9.018870
v -14.317103 -6.925974 6.994125
v -12.292360 -6.925974 6.994125
v -12.292360 -6.925974 9.018870
v -14.013836 3.715346 8.715596
v -14.013836 3.715345 7.297391
v -12.595628 3.715345 7.297391
v -12.595628 3.715346 8.715596
vn -1.0000 -0.0000 -0.0000
vn -0.0000 -0.0000 1.0000
vn 1.0000 -0.0000 -0.0000
vn -0.0000 -0.0000 -1.0000
vn -0.0000 1.0000 -0.0000
vn -0.0000 -1.0000 -0.0000
vt 0.354191 0.107274
vt 0.300554 0.160910
vt 0.300554 0.107274
vt 0.354191 0.160910
vt 0.407828 0.107274
vt 0.407828 0.160910
vt 0.300554 0.053637
vt 0.354191 0.053637
vt 0.354191 0.214547
vt 0.407828 0.214547
vt 0.354191 0.000000
vt 0.300554 0.000000
vt 0.187847 0.000000
vt 0.150277 1.000000
vt 0.150277 0.000000
vt 0.346157 0.206514
vt 0.308588 0.168944
vt 0.346157 0.168944
vt 0.308588 0.206514
vt 0.300554 0.214547
vt 0.391760 0.305753
vt 0.354191 0.343323
vt 0.354191 0.305753
vt 0.075139 0.000000
vt 0.112708 1.000000
vt 0.075139 1.000000
vt 0.112708 0.000000
vt 0.037569 1.000000
vt 0.037569 0.000000
vt 0.354191 0.053638
vt 0.407828 0.107277
vt 0.354191 0.107277
vt 0.407829 0.000000
vt 0.300554 0.321819
vt 0.354191 0.375458
vt 0.300554 0.375458
vt 0.407829 0.214547
vt 0.354191 0.268184
vt 0.300554 0.321821
vt 0.354191 0.321821
vt 0.225416 1.000000
vt 0.262985 0.000000
vt 0.262985 1.000000
vt 0.308588 0.260150
vt 0.308588 0.222581
vt 0.346157 0.260150
vt 0.300554 0.268184
vt 0.346157 0.222581
vt 0.391760 0.268184
vt 0.300554 1.000000
vt 0.000000 1.000000
vt 0.187847 1.000000
vt 0.225416 0.000000
vt 0.187846 1.000000
vt 0.391760 0.343323
vt 0.407828 0.053638
vt 0.407829 0.053637
vt 0.354191 0.321819
vt 0.407829 0.268184
vt 0.000000 0.000000
s 1
usemtl Material.002
f 105/195/25 114/196/25 107/197/25
f 114/198/26 111/199/26 107/200/26
f 115/195/27 109/201/27 111/202/27
f 116/203/28 105/200/28 109/204/28
f 111/205/29 105/201/29 107/206/29
f 112/207/27 120/208/27 110/209/27
f 106/210/30 114/198/30 113/203/30
f 112/211/30 114/198/30 108/212/30
f 110/213/30 115/196/30 112/211/30
f 106/210/30 116/214/30 110/213/30
f 118/215/30 120/216/30 119/217/30
f 108/218/25 117/219/25 118/220/25
f 110/209/28 117/219/28 106/221/28
f 108/218/26 119/222/26 112/223/26
f 129/224/25 123/225/25 121/226/25
f 130/227/28 127/202/28 123/205/28
f 131/228/27 125/229/27 127/230/27
f 132/231/26 121/232/26 125/203/26
f 127/233/30 121/232/30 123/234/30
f 128/235/27 136/236/27 126/237/27
f 124/238/29 129/214/29 122/239/29
f 128/240/29 130/241/29 124/238/29
f 126/242/29 131/232/29 128/240/29
f 122/239/29 132/203/29 126/242/29
f 134/217/29 136/243/29 135/215/29
f 122/237/25 134/206/25 124/244/25
f 126/245/26 133/223/26 122/222/26
f 124/246/28 135/247/28 128/235/28
f 105/195/25 113/198/25 114/196/25
f 114/198/26 115/195/26 111/199/26
f 115/195/27 116/197/27 109/201/27
f 116/203/28 113/198/28 105/200/28
f 111/205/29 109/202/29 105/201/29
f 112/207/27 119/248/27 120/208/27
f 106/210/30 108/212/30 114/198/30
f 112/211/30 115/196/30 114/198/30
f 110/213/30 116/214/30 115/196/30
f 106/210/30 113/203/30 116/214/30
f 118/215/30 117/249/30 120/216/30
f 108/218/25 106/221/25 117/219/25
f 110/209/28 120/208/28 117/219/28
f 108/218/26 118/220/26 119/222/26
f 129/224/25 130/250/25 123/225/25
f 130/227/28 131/251/28 127/202/28
f 131/228/27 132/252/27 125/229/27
f 132/231/26 129/253/26 121/232/26
f 127/233/30 125/241/30 121/232/30
f 128/235/27 135/247/27 136/236/27
f 124/238/29 130/241/29 129/214/29
f 128/240/29 131/232/29 130/241/29
f 126/242/29 132/203/29 131/232/29
f 122/239/29 129/214/29 132/203/29
f 134/217/29 133/232/29 136/243/29
f 122/237/25 133/236/25 134/206/25
f 126/245/26 136/254/26 133/223/26
f 124/246/28 134/207/28 135/247/28
